<svg id="Capa_1" enable-background="new 0 0 512 512" height="512" viewBox="0 0 512 512" width="512" xmlns="http://www.w3.org/2000/svg"><path d="m496.375 37.121-104.229-29.291v-.317c0-4.149-3.364-7.513-7.513-7.513s-7.513 3.364-7.513 7.513v155.905h-10.655c-8.561 0-15.526 6.965-15.526 15.526v68.055h-101.239c-8.561 0-15.526 6.965-15.526 15.526v68.055h-101.241c-8.561 0-15.526 6.965-15.526 15.526v68.056h-101.24c-8.561 0-15.526 6.965-15.526 15.526v66.787c0 8.561 6.965 15.526 15.526 15.526h399.953c4.149 0 7.513-3.364 7.513-7.513s-3.364-7.513-7.513-7.513h-50.155v-242.464-75.568c0-.276.224-.501.501-.501h100.74c.276 0 .501.224.501.501v317.531c0 .276-.225.501-.501.501h-15.212c-4.149 0-7.513 3.364-7.513 7.513s3.364 7.513 7.513 7.513h15.212c8.561 0 15.526-6.965 15.526-15.526v-317.532c0-8.561-6.965-15.526-15.526-15.526h-75.06v-57.455l19.576-5.502c3.994-1.122 6.322-5.271 5.2-9.265s-5.269-6.325-9.265-5.2l-15.511 4.359v-66.917l100.164 28.148c3.734 1.05 4.024 4.33 4.024 5.311 0 .98-.291 4.261-4.024 5.311l-53.103 14.923c-3.994 1.122-6.322 5.271-5.2 9.265s5.266 6.326 9.265 5.2l53.102-14.923c8.962-2.518 14.984-10.466 14.984-19.775.001-9.311-6.021-17.258-14.983-19.776zm-480.708 459.353v-66.787c0-.276.224-.501.501-.501h101.24v67.789h-101.241c-.276 0-.5-.225-.5-.501zm226.02-96.661c-4.149 0-7.513 3.364-7.513 7.513v89.649h-101.741v-75.301-75.568c0-.276.224-.501.501-.501h101.241v27.261c0 4.149 3.364 7.513 7.513 7.513s7.513-3.364 7.513-7.513v-110.342c0-.276.224-.501.501-.501h101.24v234.951h-101.743v-89.649c0-4.149-3.363-7.512-7.512-7.512z"/></svg>